<?xml version="1.0" encoding="UTF-8"?>
<svg id="Layer_1" data-name="Layer 1" xmlns="http://www.w3.org/2000/svg" viewBox="0 0 823.98 503.37">
  <defs>
    <style>
      .cls-1 {
        fill: #fff;
      }

      .cls-2 {
        stroke: #005f73;
        stroke-width: 5px;
      }

      .cls-2, .cls-3 {
        fill: none;
      }

      .cls-3 {
        stroke: #001219;
        stroke-width: 10px;
      }
    </style>
  </defs>
  <g>
    <g>
      <path class="cls-1" d="M216.3,503.3c-11.67,0-20.65-3.27-26.95-9.8-6.3-6.53-9.45-15.63-9.45-27.3V65.8H31.5c-9.8,0-17.5-2.68-23.1-8.05C2.8,52.39,0,44.8,0,35S2.8,17.74,8.4,12.6c5.6-5.13,13.3-7.7,23.1-7.7h368.9c10.26,0,18.2,2.57,23.8,7.7,5.6,5.14,8.4,12.6,8.4,22.4s-2.8,17.39-8.4,22.75c-5.6,5.37-13.54,8.05-23.8,8.05h-148.4v400.4c0,11.67-2.92,20.77-8.75,27.3-5.84,6.53-14.82,9.8-26.95,9.8Z"/>
      <path class="cls-1" d="M488.59,503.3c-11.67,0-20.65-3.27-26.95-9.8-6.3-6.53-9.45-15.63-9.45-27.3V36.4c0-12.13,3.15-21.23,9.45-27.3,6.3-6.06,15.28-9.1,26.95-9.1s20.65,3.04,26.95,9.1c6.3,6.07,9.45,15.17,9.45,27.3v190.4h1.4L741.29,18.9c7-6.53,13.65-11.31,19.95-14.35,6.3-3.03,13.41-4.55,21.35-4.55,10.73,0,18.55,2.69,23.45,8.05,4.9,5.37,6.88,11.79,5.95,19.25-.94,7.47-4.9,14.7-11.9,21.7l-203.97,194.38,214.47,206.72c8.4,7.94,12.83,16.1,13.3,24.5.46,8.4-2.1,15.29-7.7,20.65-5.6,5.36-13.54,8.05-23.8,8.05-9.34,0-16.8-1.87-22.4-5.6-5.6-3.73-12.14-9.1-19.6-16.1l-224-213.5h-1.4v198.1c0,11.67-3.04,20.77-9.1,27.3-6.07,6.53-15.17,9.8-27.3,9.8Z"/>
    </g>
    <g>
      <path class="cls-3" d="M216.3,503.3c-11.67,0-20.65-3.27-26.95-9.8-6.3-6.53-9.45-15.63-9.45-27.3V65.8H31.5c-9.8,0-17.5-2.68-23.1-8.05C2.8,52.39,0,44.8,0,35S2.8,17.74,8.4,12.6c5.6-5.13,13.3-7.7,23.1-7.7h368.9c10.26,0,18.2,2.57,23.8,7.7,5.6,5.14,8.4,12.6,8.4,22.4s-2.8,17.39-8.4,22.75c-5.6,5.37-13.54,8.05-23.8,8.05h-148.4v400.4c0,11.67-2.92,20.77-8.75,27.3-5.84,6.53-14.82,9.8-26.95,9.8Z"/>
      <path class="cls-3" d="M488.59,503.3c-11.67,0-20.65-3.27-26.95-9.8-6.3-6.53-9.45-15.63-9.45-27.3V36.4c0-12.13,3.15-21.23,9.45-27.3,6.3-6.06,15.28-9.1,26.95-9.1s20.65,3.04,26.95,9.1c6.3,6.07,9.45,15.17,9.45,27.3v190.4h1.4L741.29,18.9c7-6.53,13.65-11.31,19.95-14.35,6.3-3.03,13.41-4.55,21.35-4.55,10.73,0,18.55,2.69,23.45,8.05,4.9,5.37,6.88,11.79,5.95,19.25-.94,7.47-4.9,14.7-11.9,21.7l-203.97,194.38,214.47,206.72c8.4,7.94,12.83,16.1,13.3,24.5.46,8.4-2.1,15.29-7.7,20.65-5.6,5.36-13.54,8.05-23.8,8.05-9.34,0-16.8-1.87-22.4-5.6-5.6-3.73-12.14-9.1-19.6-16.1l-224-213.5h-1.4v198.1c0,11.67-3.04,20.77-9.1,27.3-6.07,6.53-15.17,9.8-27.3,9.8Z"/>
    </g>
  </g>
  <g>
    <g>
      <path class="cls-1" d="M216.33,503.37c-11.67,0-20.65-3.27-26.95-9.8-6.3-6.53-9.45-15.63-9.45-27.3V65.87H31.53c-9.8,0-17.5-2.68-23.1-8.05C2.83,52.46.03,44.87.03,35.07S2.83,17.81,8.43,12.67c5.6-5.13,13.3-7.7,23.1-7.7h368.9c10.26,0,18.2,2.57,23.8,7.7,5.6,5.14,8.4,12.6,8.4,22.4s-2.8,17.39-8.4,22.75c-5.6,5.37-13.54,8.05-23.8,8.05h-148.4v400.4c0,11.67-2.92,20.77-8.75,27.3-5.84,6.53-14.82,9.8-26.95,9.8Z"/>
      <path class="cls-1" d="M488.63,503.37c-11.67,0-20.65-3.27-26.95-9.8-6.3-6.53-9.45-15.63-9.45-27.3V36.47c0-12.13,3.15-21.23,9.45-27.3,6.3-6.06,15.28-9.1,26.95-9.1s20.65,3.04,26.95,9.1c6.3,6.07,9.45,15.17,9.45,27.3v190.4h1.4L741.33,18.97c7-6.53,13.65-11.31,19.95-14.35,6.3-3.03,13.41-4.55,21.35-4.55,10.73,0,18.55,2.69,23.45,8.05,4.9,5.37,6.88,11.79,5.95,19.25-.94,7.47-4.9,14.7-11.9,21.7l-203.97,194.38,214.47,206.72c8.4,7.94,12.83,16.1,13.3,24.5.46,8.4-2.1,15.29-7.7,20.65-5.6,5.36-13.54,8.05-23.8,8.05-9.34,0-16.8-1.87-22.4-5.6-5.6-3.73-12.14-9.1-19.6-16.1l-224-213.5h-1.4v198.1c0,11.67-3.04,20.77-9.1,27.3-6.07,6.53-15.17,9.8-27.3,9.8Z"/>
    </g>
    <g>
      <path class="cls-1" d="M216.33,503.37c-11.67,0-20.65-3.27-26.95-9.8-6.3-6.53-9.45-15.63-9.45-27.3V65.87H31.53c-9.8,0-17.5-2.68-23.1-8.05C2.83,52.46.03,44.87.03,35.07S2.83,17.81,8.43,12.67c5.6-5.13,13.3-7.7,23.1-7.7h368.9c10.26,0,18.2,2.57,23.8,7.7,5.6,5.14,8.4,12.6,8.4,22.4s-2.8,17.39-8.4,22.75c-5.6,5.37-13.54,8.05-23.8,8.05h-148.4v400.4c0,11.67-2.92,20.77-8.75,27.3-5.84,6.53-14.82,9.8-26.95,9.8Z"/>
      <path class="cls-1" d="M488.63,503.37c-11.67,0-20.65-3.27-26.95-9.8-6.3-6.53-9.45-15.63-9.45-27.3V36.47c0-12.13,3.15-21.23,9.45-27.3,6.3-6.06,15.28-9.1,26.95-9.1s20.65,3.04,26.95,9.1c6.3,6.07,9.45,15.17,9.45,27.3v190.4h1.4L741.33,18.97c7-6.53,13.65-11.31,19.95-14.35,6.3-3.03,13.41-4.55,21.35-4.55,10.73,0,18.55,2.69,23.45,8.05,4.9,5.37,6.88,11.79,5.95,19.25-.94,7.47-4.9,14.7-11.9,21.7l-203.97,194.38,214.47,206.72c8.4,7.94,12.83,16.1,13.3,24.5.46,8.4-2.1,15.29-7.7,20.65-5.6,5.36-13.54,8.05-23.8,8.05-9.34,0-16.8-1.87-22.4-5.6-5.6-3.73-12.14-9.1-19.6-16.1l-224-213.5h-1.4v198.1c0,11.67-3.04,20.77-9.1,27.3-6.07,6.53-15.17,9.8-27.3,9.8Z"/>
    </g>
    <g>
      <path class="cls-2" d="M216.33,503.37c-11.67,0-20.65-3.27-26.95-9.8-6.3-6.53-9.45-15.63-9.45-27.3V65.87H31.53c-9.8,0-17.5-2.68-23.1-8.05C2.83,52.46.03,44.87.03,35.07S2.83,17.81,8.43,12.67c5.6-5.13,13.3-7.7,23.1-7.7h368.9c10.26,0,18.2,2.57,23.8,7.7,5.6,5.14,8.4,12.6,8.4,22.4s-2.8,17.39-8.4,22.75c-5.6,5.37-13.54,8.05-23.8,8.05h-148.4v400.4c0,11.67-2.92,20.77-8.75,27.3-5.84,6.53-14.82,9.8-26.95,9.8Z"/>
      <path class="cls-2" d="M488.63,503.37c-11.67,0-20.65-3.27-26.95-9.8-6.3-6.53-9.45-15.63-9.45-27.3V36.47c0-12.13,3.15-21.23,9.45-27.3,6.3-6.06,15.28-9.1,26.95-9.1s20.65,3.04,26.95,9.1c6.3,6.07,9.45,15.17,9.45,27.3v190.4h1.4L741.33,18.97c7-6.53,13.65-11.31,19.95-14.35,6.3-3.03,13.41-4.55,21.35-4.55,10.73,0,18.55,2.69,23.45,8.05,4.9,5.37,6.88,11.79,5.95,19.25-.94,7.47-4.9,14.7-11.9,21.7l-203.97,194.38,214.47,206.72c8.4,7.94,12.83,16.1,13.3,24.5.46,8.4-2.1,15.29-7.7,20.65-5.6,5.36-13.54,8.05-23.8,8.05-9.34,0-16.8-1.87-22.4-5.6-5.6-3.73-12.14-9.1-19.6-16.1l-224-213.5h-1.4v198.1c0,11.67-3.04,20.77-9.1,27.3-6.07,6.53-15.17,9.8-27.3,9.8Z"/>
    </g>
  </g>
</svg>